<svg height="512" viewBox="0 0 128 128" width="512" xmlns="http://www.w3.org/2000/svg"><g><g><path d="m22.279 1.75h94.211v124.5h-94.211z" fill="#fedb41"/><g fill="#0d70b2"><path d="m15.51 18.523h6.77a0 0 0 0 1 0 0v10.77a0 0 0 0 1 0 0h-6.77a4 4 0 0 1 -4-4v-2.77a4 4 0 0 1 4-4z"/><path d="m15.51 45.253h6.77a0 0 0 0 1 0 0v10.77a0 0 0 0 1 0 0h-6.77a4 4 0 0 1 -4-4v-2.77a4 4 0 0 1 4-4z"/><path d="m15.51 71.983h6.77a0 0 0 0 1 0 0v10.77a0 0 0 0 1 0 0h-6.77a4 4 0 0 1 -4-4v-2.77a4 4 0 0 1 4-4z"/><path d="m15.51 98.714h6.77a0 0 0 0 1 0 0v10.77a0 0 0 0 1 0 0h-6.77a4 4 0 0 1 -4-4v-2.77a4 4 0 0 1 4-4z"/></g><path d="m32.279 67.69h74.211v7.688h-74.211z" fill="#1689fc"/><path d="m69.385 33.753a30.844 30.844 0 0 1 30.843 30.847v3.09a0 0 0 0 1 0 0h-61.687a0 0 0 0 1 0 0v-3.09a30.844 30.844 0 0 1 30.844-30.847z" fill="#e1e4fb"/><path d="m69.385 33.753a30.893 30.893 0 0 1 7.75.983 7.969 7.969 0 1 0 -15.5 0 30.887 30.887 0 0 1 7.75-.983z" fill="#ff9f00"/><path d="m106.49 86.815h-74.211a1.75 1.75 0 0 1 0-3.5h74.211a1.75 1.75 0 1 1 0 3.5z" fill="#ff9f00"/><path d="m106.49 95.815h-74.211a1.75 1.75 0 0 1 0-3.5h74.211a1.75 1.75 0 1 1 0 3.5z" fill="#ff9f00"/><path d="m97.25 104.815h-55.73a1.75 1.75 0 0 1 0-3.5h55.73a1.75 1.75 0 0 1 0 3.5z" fill="#ff9f00"/></g><g><path d="m116.49 0h-66.771a1.75 1.75 0 0 0 0 3.5h65.021v121h-90.711v-121h11.909a1.75 1.75 0 0 0 0-3.5h-13.659a1.75 1.75 0 0 0 -1.75 1.75v15.022h-5.019a5.757 5.757 0 0 0 -5.75 5.75v2.77a5.756 5.756 0 0 0 5.75 5.75h5.019v12.458h-5.019a5.756 5.756 0 0 0 -5.75 5.75v2.769a5.756 5.756 0 0 0 5.75 5.75h5.019v12.464h-5.019a5.757 5.757 0 0 0 -5.75 5.75v2.77a5.756 5.756 0 0 0 5.75 5.75h5.019v12.461h-5.019a5.756 5.756 0 0 0 -5.75 5.75v2.769a5.756 5.756 0 0 0 5.75 5.75h5.019v15.017a1.75 1.75 0 0 0 1.75 1.75h94.211a1.75 1.75 0 0 0 1.75-1.75v-124.5a1.75 1.75 0 0 0 -1.75-1.75zm-100.98 27.542a2.253 2.253 0 0 1 -2.25-2.25v-2.77a2.253 2.253 0 0 1 2.25-2.25h5.019v7.27zm0 26.73a2.252 2.252 0 0 1 -2.25-2.25v-2.769a2.253 2.253 0 0 1 2.25-2.253h5.019v7.269zm0 26.728a2.253 2.253 0 0 1 -2.25-2.25v-2.77a2.253 2.253 0 0 1 2.25-2.25h5.019v7.27zm0 26.73a2.252 2.252 0 0 1 -2.25-2.25v-2.769a2.253 2.253 0 0 1 2.25-2.25h5.019v7.269z"/><path d="m82.375 77.128a1.75 1.75 0 0 0 0-3.5h-4.125a1.75 1.75 0 0 0 0 3.5z"/><path d="m36.791 64.6v1.34h-4.512a1.751 1.751 0 0 0 -1.75 1.75v7.688a1.75 1.75 0 0 0 1.75 1.75h34.1a1.75 1.75 0 0 0 0-3.5h-32.35v-4.188h70.711v4.188h-10.49a1.75 1.75 0 0 0 0 3.5h12.24a1.75 1.75 0 0 0 1.75-1.75v-7.688a1.751 1.751 0 0 0 -1.75-1.75h-4.512v-1.34a32.651 32.651 0 0 0 -22.908-31.128c.011-.188.034-.377.034-.563a9.719 9.719 0 1 0 -19.438 0c0 .186.022.375.034.563a32.652 32.652 0 0 0 -22.909 31.128zm32.594-37.91a6.222 6.222 0 0 1 6.2 5.912 32.417 32.417 0 0 0 -12.406 0 6.221 6.221 0 0 1 6.206-5.912zm0 8.813a29.128 29.128 0 0 1 29.094 29.097v1.34h-58.188v-1.34a29.127 29.127 0 0 1 29.094-29.1z"/><path d="m106.49 83.315h-74.211a1.75 1.75 0 0 0 0 3.5h74.211a1.75 1.75 0 1 0 0-3.5z"/><path d="m108.24 94.065a1.751 1.751 0 0 0 -1.75-1.75h-74.211a1.75 1.75 0 0 0 0 3.5h74.211a1.75 1.75 0 0 0 1.75-1.75z"/><path d="m41.52 101.315a1.75 1.75 0 0 0 0 3.5h55.73a1.75 1.75 0 0 0 0-3.5z"/></g></g></svg>