<svg id="Layer_1" enable-background="new 0 0 512 512" height="512" viewBox="0 0 512 512" width="512" xmlns="http://www.w3.org/2000/svg"><g><path d="m431.425 194.637h-50.644v-34.614c18.51-2.057 32.951-17.795 32.951-36.843v-.259c-.02-15.352-9.262-28.715-23.094-34.292-1.873-24.727-22.278-44.582-47.583-45.233-.075-.003-.151-.003-.224-.003-8.394.034-16.565 2.341-23.669 6.544-8.128-30.269-36.71-51.771-69.178-49.796-17.704 1.066-34.069 9.03-45.78 21.883-8.539-13.302-23.247-21.759-39.707-22.022-.104-.002-.208-.001-.313.002-25.872.666-46.621 21.406-47.681 46.902-.202-.003-.404-.005-.607-.005-.055.001-.125.001-.189.002-23.613.563-43.259 18.102-46.985 40.915-14.979 4.943-25.345 18.915-25.354 35.152v.249c0 15.556 9.632 28.904 23.245 34.396v62.528c0 4.143 3.358 7.5 7.5 7.5s7.5-3.357 7.5-7.5v-59.853h14.585v267.903c0 19.08 15.523 34.603 34.604 34.603h113.197c4.142 0 7.5-3.357 7.5-7.5s-3.358-7.5-7.5-7.5h-113.198c-10.81 0-19.604-8.794-19.604-19.603v-230.367c13.857.733 21.742 3.492 30.021 6.389 10.424 3.648 21.203 7.421 42.477 7.421 4.035 0 7.817-.135 11.407-.41v67.348c0 13.445 10.939 24.384 24.385 24.384s24.386-10.938 24.386-24.384v-40.841c0-4.998 4.066-9.063 9.065-9.063 13.27 0 24.065-10.795 24.065-24.064v-16.645c0-6.71 5.46-12.169 12.171-12.169s12.171 5.459 12.171 12.169v23.028c0 13.741 11.179 24.922 24.921 24.925h.005c3.472 0 6.835-.705 9.926-2.047v194.327c0 10.809-8.794 19.603-19.604 19.603h-37.938c-4.142 0-7.5 3.357-7.5 7.5s3.358 7.5 7.5 7.5h37.938c19.081 0 34.604-15.522 34.604-34.603v-242.483c0-10.15 5.971-18.931 14.584-23.017v39.443c0 4.143 3.358 7.5 7.5 7.5h58.144c12.246 0 22.208 9.962 22.208 22.206v16.716c0 4.143 3.358 7.5 7.5 7.5s7.5-3.357 7.5-7.5v-16.716c0-20.516-16.692-37.206-37.208-37.206zm-236.324 1.539c-3.54.308-7.316.46-11.407.46-18.725 0-27.855-3.195-37.521-6.578-9.122-3.193-18.515-6.48-34.976-7.252v-22.516h58.442c14.04 0 25.462 11.421 25.462 25.46zm141.096-10.465v25.278c0 2.651-1.033 5.144-2.908 7.019-1.875 1.874-4.367 2.906-7.019 2.906h-.002c-5.472-.001-9.924-4.453-9.924-9.925v-23.028c0-14.981-12.189-27.169-27.171-27.169s-27.171 12.188-27.171 27.169v16.645c0 4.998-4.067 9.064-9.065 9.064-13.27 0-24.065 10.795-24.065 24.063v40.841c0 5.174-4.21 9.384-9.386 9.384-5.175 0-9.385-4.21-9.385-9.384v-92.824c0-22.31-18.151-40.46-40.462-40.46h-89.199c-12.171 0-22.073-9.901-22.073-22.071v-.245c.006-10.843 7.777-19.99 18.478-21.751 3.499-.575 6.116-3.522 6.275-7.065.789-17.637 15.208-31.788 32.849-32.257 2.253.01 4.511.267 6.712.762 2.384.536 4.881-.121 6.691-1.766 1.809-1.644 2.704-4.066 2.397-6.491-.187-1.479-.287-2.983-.297-4.47 0-.045-.001-.089-.002-.133-.457-18.657 14.308-34.235 32.944-34.801 14.476.299 26.955 9.802 31.083 23.69.847 2.85 3.296 4.93 6.244 5.304 2.948.378 5.84-1.028 7.372-3.574 8.907-14.809 24.523-24.27 41.773-25.309 28.859-1.741 53.747 20.322 55.485 49.175.182 3.015 2.153 5.625 5.002 6.626 2.85.999 6.021.193 8.046-2.046 5.964-6.594 14.473-10.407 23.361-10.475 18.657.542 33.445 16.13 32.987 34.802v.004c-.024.313-.041.619-.041.945 0 3.501 2.422 6.537 5.836 7.313 10.096 2.296 17.156 11.13 17.169 21.473v.249c0 12.17-9.902 22.071-22.073 22.071-22.31.001-40.461 18.151-40.461 40.461z"/><path d="m373.281 372.228h57.852c4.142 0 7.5-3.357 7.5-7.5v-132.593c0-4.143-3.358-7.5-7.5-7.5h-57.852c-4.142 0-7.5 3.357-7.5 7.5v132.593c0 4.142 3.358 7.5 7.5 7.5zm7.5-132.593h42.852v117.593h-42.852z"/><path d="m461.133 275.346c-4.142 0-7.5 3.357-7.5 7.5v82.173c0 12.244-9.963 22.206-22.208 22.206h-58.144c-4.142 0-7.5 3.357-7.5 7.5v79.778c0 4.143 3.358 7.5 7.5 7.5 4.144 0 7.515 3.364 7.515 7.499s-3.371 7.498-7.515 7.498h-299.169c-4.144 0-7.515-3.363-7.515-7.498s3.371-7.499 7.515-7.499c4.142 0 7.5-3.357 7.5-7.5v-219.549c0-4.143-3.358-7.5-7.5-7.5s-7.5 3.357-7.5 7.5v213.332c-8.738 3.095-15.015 11.437-15.015 21.216 0 12.405 10.1 22.498 22.515 22.498h299.169c12.415 0 22.515-10.093 22.515-22.498 0-9.779-6.277-18.121-15.015-21.216v-66.062h50.644c20.517 0 37.208-16.69 37.208-37.206v-82.173c0-4.142-3.358-7.499-7.5-7.499z"/><circle cx="195.177" cy="94.902" r="7.499"/><circle cx="163.177" cy="54.905" r="7.499"/><circle cx="336.177" cy="105.897" r="7.499"/><circle cx="140.177" cy="380.882" r="7.499"/><circle cx="172.177" cy="420.877" r="7.499"/><circle cx="299.177" cy="411.875" r="7.499"/></g></svg>