<?xml version="1.0" encoding="iso-8859-1"?>
<!-- Generator: Adobe Illustrator 19.0.0, SVG Export Plug-In . SVG Version: 6.00 Build 0)  -->
<svg version="1.1" id="Capa_1" xmlns="http://www.w3.org/2000/svg" xmlns:xlink="http://www.w3.org/1999/xlink" x="0px" y="0px"
	 viewBox="0 0 512 512" style="enable-background:new 0 0 512 512;" xml:space="preserve">
<g>
	<g>
		<path d="M474.1,204.56c-16.405-20.122-34.985-35.797-54.211-48.013c-0.142-0.105-0.278-0.216-0.428-0.311
			c-18.529-11.735-39.241-21.231-61.561-28.226c-0.309-0.096-0.622-0.168-0.936-0.223c-34.801-10.776-70.91-14.421-107.236-13.744
			c-10.273,0.192-20.544,0.677-30.78,1.581c-20.189,1.783-40.246,5.215-59.718,10.885c-26.055,7.587-51.088,18.854-73.54,34.156
			c-8.016,5.463-15.639,11.482-22.892,17.921c-13.918,12.357-26.255,26.452-36.723,41.839
			c-13.367,19.649-21.972,42.007-24.882,64.656c-3.974,30.916,1.99,56.016,17.723,74.602c19.927,23.539,55.432,36.44,105.531,38.345
			c0.094,0.004,0.19,0.006,0.284,0.006h18.649c4.129,0,7.475-3.346,7.475-7.475c0-4.129-3.346-7.475-7.475-7.475h-18.505
			c-45.654-1.757-77.466-12.879-94.549-33.06c-13.092-15.464-17.771-36.084-14.307-63.038c2.613-20.329,10.365-40.438,22.416-58.153
			c14.816-21.779,32.224-38.843,50.629-52.204v62.611c0,18.866,15.349,34.214,34.214,34.214h6.319
			c18.866,0,34.214-15.349,34.214-34.214v-98.581c20.416-5.952,39.429-8.957,54.815-10.419v109.001
			c0,18.866,15.349,34.214,34.215,34.214h6.318c18.866,0,34.215-15.349,34.215-34.214v-108.98
			c15.361,1.47,34.382,4.481,54.815,10.443v98.537c0,18.866,15.348,34.214,34.214,34.214h6.319
			c18.866,0,34.214-15.349,34.214-34.214v-62.579c14.009,10.161,27.439,22.455,39.578,37.344c2.607,3.198,7.316,3.679,10.516,1.07
			C476.229,212.468,476.709,207.76,474.1,204.56z M129.597,258.507h-6.319c-10.622,0-19.265-8.643-19.265-19.265V166.71
			c13.786-8.381,28.82-15.481,44.848-21.186v93.718h0.001C148.862,249.864,140.219,258.507,129.597,258.507z M278.424,239.242
			c0,10.622-8.643,19.265-19.265,19.265h-6.318c-10.622,0-19.265-8.643-19.265-19.265v-110.03c8.496-0.375,14.891-0.27,18.312-0.153
			c2.729,0.095,5.495,0.095,8.224,0c3.421-0.116,9.815-0.221,18.312,0.153V239.242z M388.721,258.507h-6.319
			c-10.622,0-19.265-8.643-19.265-19.265v-93.704c0.524,0.186,1.048,0.376,1.573,0.567c0.935,0.339,1.866,0.684,2.794,1.033
			c0.762,0.286,1.523,0.569,2.286,0.864c1.449,0.561,2.888,1.134,4.319,1.718c0.742,0.302,1.485,0.615,2.227,0.926
			c0.976,0.409,1.947,0.824,2.915,1.244c0.693,0.301,1.385,0.597,2.079,0.905c1.458,0.649,2.906,1.311,4.344,1.985
			c0.707,0.331,1.414,0.673,2.121,1.012c0.926,0.445,1.848,0.895,2.765,1.35c0.726,0.36,1.451,0.718,2.176,1.087
			c1.284,0.653,2.559,1.317,3.825,1.991c0.844,0.449,1.688,0.912,2.531,1.374c0.832,0.456,1.662,0.914,2.486,1.378
			c0.789,0.445,1.578,0.896,2.365,1.353c0.768,0.445,1.53,0.898,2.291,1.351c0.584,0.348,1.168,0.693,1.75,1.047v72.519h0.002
			C407.986,249.864,399.343,258.507,388.721,258.507z"/>
	</g>
</g>
<g>
	<g>
		<path d="M510.807,285.082c-1.729-13.445-5.414-26.716-10.956-39.446c-1.649-3.785-6.054-5.518-9.838-3.87
			c-3.785,1.649-5.517,6.053-3.87,9.838c4.979,11.435,8.288,23.339,9.837,35.383c3.464,26.954-1.216,47.574-14.307,63.038
			c-17.083,20.181-48.894,31.303-94.548,33.06H190.222c-4.129,0-7.475,3.346-7.475,7.475c0,4.129,3.346,7.475,7.475,7.475h197.046
			c0.094,0,0.19-0.002,0.284-0.006c50.099-1.905,85.604-14.806,105.531-38.345C508.817,341.098,514.781,315.998,510.807,285.082z"/>
	</g>
</g>
<g>
</g>
<g>
</g>
<g>
</g>
<g>
</g>
<g>
</g>
<g>
</g>
<g>
</g>
<g>
</g>
<g>
</g>
<g>
</g>
<g>
</g>
<g>
</g>
<g>
</g>
<g>
</g>
<g>
</g>
</svg>
