<svg xmlns="http://www.w3.org/2000/svg" height="511pt" version="1.1" viewBox="0 0 511.99989 511" width="511pt">
<g id="surface1">
<path d="M 511.964844 350.949219 C 511.964844 339.097656 507.804688 327.847656 500.355469 318.9375 C 509.257812 307.996094 518.371094 287.550781 505.910156 265.65625 C 505.839844 265.535156 505.761719 265.421875 505.683594 265.304688 C 509.636719 259.59375 511.960938 252.671875 511.960938 245.214844 C 511.960938 232.992188 505.730469 222.195312 496.277344 215.835938 C 505.929688 206.625 511.960938 193.652344 511.960938 179.289062 C 511.960938 80.703125 431.757812 0.5 333.171875 0.5 L 178.828125 0.5 C 80.242188 0.5 0.0390625 80.703125 0.0390625 179.289062 C 0.0390625 193.652344 6.070312 206.625 15.722656 215.835938 C 6.269531 222.195312 0.0390625 232.992188 0.0390625 245.214844 C 0.0390625 252.671875 2.359375 259.59375 6.3125 265.304688 C 6.242188 265.421875 6.160156 265.535156 6.089844 265.65625 C -6.367188 287.546875 2.738281 307.988281 11.636719 318.933594 C 4.195312 327.859375 0.0351562 339.164062 0.0351562 350.949219 C 0.0351562 365.113281 5.964844 377.910156 15.460938 387.011719 C 6.160156 393.335938 0.0351562 404.003906 0.0351562 416.074219 C 0.0351562 469.203125 43.257812 512.425781 96.386719 512.425781 L 415.609375 512.425781 C 468.738281 512.425781 511.960938 469.199219 511.960938 416.074219 C 511.960938 404 505.839844 393.335938 496.535156 387.011719 C 506.03125 377.910156 511.964844 365.113281 511.964844 350.949219 Z M 30.15625 309.410156 C 29.984375 309.28125 14.539062 295.292969 22.222656 278.039062 C 26.304688 279.6875 30.757812 280.601562 35.421875 280.601562 L 476.578125 280.601562 C 481.242188 280.601562 485.695312 279.6875 489.777344 278.039062 C 497.460938 295.292969 482.019531 309.277344 481.898438 309.371094 C 472.945312 315.546875 460.917969 315.523438 451.9375 309.296875 C 436.113281 298.40625 414.855469 298.40625 399.035156 309.296875 C 399.003906 309.320312 398.972656 309.34375 398.9375 309.367188 C 389.910156 315.523438 377.816406 315.503906 368.808594 309.304688 C 352.988281 298.410156 331.730469 298.414062 315.910156 309.304688 C 306.882812 315.519531 294.761719 315.523438 285.730469 309.316406 C 285.714844 309.304688 285.699219 309.292969 285.683594 309.28125 C 277.019531 303.316406 266.507812 300.457031 256 301.183594 C 245.476562 300.460938 234.976562 303.316406 226.316406 309.28125 C 226.296875 309.292969 226.28125 309.304688 226.265625 309.316406 C 217.238281 315.523438 205.113281 315.519531 196.085938 309.304688 C 180.265625 298.410156 159.007812 298.410156 143.1875 309.304688 C 134.179688 315.503906 122.085938 315.527344 113.058594 309.367188 C 113.027344 309.34375 112.992188 309.320312 112.960938 309.296875 C 97.140625 298.40625 75.882812 298.402344 60.03125 309.316406 C 51.082031 315.527344 39.050781 315.546875 30.15625 309.410156 Z M 178.828125 20.496094 L 333.171875 20.496094 C 420.730469 20.496094 491.964844 91.730469 491.964844 179.289062 C 491.964844 196.128906 478.265625 209.832031 461.421875 209.832031 L 50.574219 209.832031 C 33.734375 209.832031 20.035156 196.128906 20.035156 179.289062 C 20.035156 91.730469 91.269531 20.496094 178.828125 20.496094 Z M 476.578125 229.828125 C 485.0625 229.828125 491.964844 236.730469 491.964844 245.214844 C 491.964844 253.703125 485.0625 260.605469 476.578125 260.605469 L 35.421875 260.605469 C 26.9375 260.605469 20.035156 253.703125 20.035156 245.214844 C 20.035156 236.730469 26.9375 229.828125 35.421875 229.828125 Z M 415.613281 492.429688 L 96.386719 492.429688 C 54.285156 492.429688 20.035156 458.175781 20.035156 416.074219 C 20.035156 407.738281 26.816406 400.957031 35.152344 400.957031 L 256 400.957031 C 261.519531 400.957031 266 396.480469 266 390.957031 C 266 385.4375 261.519531 380.960938 256 380.960938 L 50.320312 380.960938 C 50.222656 380.957031 50.128906 380.945312 50.03125 380.945312 C 33.492188 380.945312 20.035156 367.488281 20.035156 350.949219 C 20.035156 343.417969 22.867188 336.214844 27.898438 330.710938 C 33.378906 332.878906 39.203125 333.964844 45.027344 333.964844 C 54.273438 333.964844 63.523438 331.230469 71.402344 325.769531 C 80.410156 319.566406 92.507812 319.546875 101.535156 325.707031 C 101.566406 325.730469 101.597656 325.75 101.628906 325.773438 C 117.449219 336.664062 138.707031 336.667969 154.53125 325.773438 C 163.570312 319.554688 175.714844 319.554688 184.75 325.777344 C 200.578125 336.675781 221.839844 336.664062 237.660156 325.753906 C 237.667969 325.746094 237.679688 325.738281 237.6875 325.734375 C 242.703125 322.289062 248.808594 320.664062 254.902344 321.15625 C 255.257812 321.195312 255.621094 321.214844 255.984375 321.214844 C 256.355469 321.226562 256.722656 321.195312 257.089844 321.15625 C 263.1875 320.667969 269.292969 322.289062 274.316406 325.730469 C 274.324219 325.738281 274.332031 325.746094 274.34375 325.753906 C 290.160156 336.664062 311.421875 336.675781 327.25 325.777344 C 336.289062 319.550781 348.433594 319.550781 357.472656 325.777344 C 373.289062 336.667969 394.550781 336.667969 410.371094 325.773438 C 410.402344 325.753906 410.433594 325.730469 410.46875 325.707031 C 419.492188 319.546875 431.589844 319.566406 440.570312 325.75 C 453.433594 334.667969 469.90625 336.324219 484.097656 330.710938 C 489.136719 336.207031 491.964844 343.375 491.964844 350.949219 C 491.964844 367.488281 478.511719 380.945312 461.96875 380.945312 C 461.871094 380.945312 461.777344 380.957031 461.679688 380.960938 L 342.320312 380.960938 C 336.800781 380.960938 332.320312 385.4375 332.320312 390.957031 C 332.320312 396.480469 336.800781 400.957031 342.320312 400.957031 L 476.847656 400.957031 C 485.183594 400.957031 491.964844 407.738281 491.964844 416.074219 C 491.964844 458.175781 457.714844 492.429688 415.613281 492.429688 Z M 415.613281 492.429688 " style=" stroke:none;fill-rule:nonzero;fill:rgb(0%,0%,0%);fill-opacity:1;" />
<path d="M 296.179688 157.503906 C 301.699219 157.503906 306.175781 153.027344 306.175781 147.507812 L 306.175781 139.023438 C 306.175781 133.503906 301.699219 129.027344 296.179688 129.027344 C 290.65625 129.027344 286.179688 133.503906 286.179688 139.023438 L 286.179688 147.507812 C 286.179688 153.027344 290.65625 157.503906 296.179688 157.503906 Z M 296.179688 157.503906 " style=" stroke:none;fill-rule:nonzero;fill:rgb(0%,0%,0%);fill-opacity:1;" />
<path d="M 390.117188 157.503906 C 395.640625 157.503906 400.117188 153.027344 400.117188 147.507812 L 400.117188 139.023438 C 400.117188 133.503906 395.640625 129.027344 390.117188 129.027344 C 384.597656 129.027344 380.121094 133.503906 380.121094 139.023438 L 380.121094 147.507812 C 380.121094 153.027344 384.59375 157.503906 390.117188 157.503906 Z M 390.117188 157.503906 " style=" stroke:none;fill-rule:nonzero;fill:rgb(0%,0%,0%);fill-opacity:1;" />
<path d="M 347.390625 80.738281 C 352.910156 80.738281 357.386719 76.261719 357.386719 70.742188 L 357.386719 62.257812 C 357.386719 56.738281 352.910156 52.261719 347.390625 52.261719 C 341.867188 52.261719 337.390625 56.738281 337.390625 62.257812 L 337.390625 70.742188 C 337.390625 76.261719 341.867188 80.738281 347.390625 80.738281 Z M 347.390625 80.738281 " style=" stroke:none;fill-rule:nonzero;fill:rgb(0%,0%,0%);fill-opacity:1;" />
<path d="M 253.765625 82.972656 C 259.289062 82.972656 263.765625 78.492188 263.765625 72.972656 L 263.765625 64.492188 C 263.765625 58.96875 259.289062 54.492188 253.765625 54.492188 C 248.246094 54.492188 243.769531 58.96875 243.769531 64.492188 L 243.769531 72.972656 C 243.769531 78.496094 248.246094 82.972656 253.765625 82.972656 Z M 253.765625 82.972656 " style=" stroke:none;fill-rule:nonzero;fill:rgb(0%,0%,0%);fill-opacity:1;" />
<path d="M 209.03125 157.503906 C 214.550781 157.503906 219.03125 153.027344 219.03125 147.507812 L 219.03125 139.023438 C 219.03125 133.503906 214.550781 129.027344 209.03125 129.027344 C 203.511719 129.027344 199.03125 133.503906 199.03125 139.023438 L 199.03125 147.507812 C 199.03125 153.027344 203.511719 157.503906 209.03125 157.503906 Z M 209.03125 157.503906 " style=" stroke:none;fill-rule:nonzero;fill:rgb(0%,0%,0%);fill-opacity:1;" />
<path d="M 166.621094 82.972656 C 172.140625 82.972656 176.617188 78.492188 176.617188 72.972656 L 176.617188 64.492188 C 176.617188 58.96875 172.140625 54.492188 166.621094 54.492188 C 161.097656 54.492188 156.621094 58.96875 156.621094 64.492188 L 156.621094 72.972656 C 156.621094 78.496094 161.097656 82.972656 166.621094 82.972656 Z M 166.621094 82.972656 " style=" stroke:none;fill-rule:nonzero;fill:rgb(0%,0%,0%);fill-opacity:1;" />
<path d="M 121.882812 157.503906 C 127.402344 157.503906 131.882812 153.027344 131.882812 147.507812 L 131.882812 139.023438 C 131.882812 133.503906 127.402344 129.027344 121.882812 129.027344 C 116.363281 129.027344 111.882812 133.503906 111.882812 139.023438 L 111.882812 147.507812 C 111.882812 153.027344 116.363281 157.503906 121.882812 157.503906 Z M 121.882812 157.503906 " style=" stroke:none;fill-rule:nonzero;fill:rgb(0%,0%,0%);fill-opacity:1;" />
<path d="M 299.867188 380.957031 L 299.660156 380.957031 C 294.140625 380.957031 289.664062 385.4375 289.664062 390.957031 C 289.664062 396.480469 294.140625 400.957031 299.660156 400.957031 L 299.867188 400.957031 C 305.390625 400.957031 309.867188 396.480469 309.867188 390.957031 C 309.867188 385.4375 305.390625 380.957031 299.867188 380.957031 Z M 299.867188 380.957031 " style=" stroke:none;fill-rule:nonzero;fill:rgb(0%,0%,0%);fill-opacity:1;" />
</g>
</svg>