<?xml version="1.0" encoding="iso-8859-1"?>
<!-- Generator: Adobe Illustrator 19.0.0, SVG Export Plug-In . SVG Version: 6.00 Build 0)  -->
<svg version="1.1" id="Capa_1" xmlns="http://www.w3.org/2000/svg" xmlns:xlink="http://www.w3.org/1999/xlink" x="0px" y="0px"
	 viewBox="0 0 496 496" style="enable-background:new 0 0 496 496;" xml:space="preserve">
<g>
	<g>
		<path d="M477.168,430.496H440v-208h-8.208c5.08-6.704,8.208-14.96,8.208-24c0-22.056-17.944-40-40-40
			c-3.168,0-6.208,0.464-9.16,1.16c0.696-2.952,1.16-5.992,1.16-9.16c0-22.056-17.944-40-40-40c-3.168,0-6.208,0.464-9.16,1.16
			c0.696-2.952,1.16-5.992,1.16-9.16c0-22.056-17.944-40-40-40c-18.96,0-34.8,13.288-38.896,31.024
			c-9.584-11.464-23.112-19.48-38.464-22.064c4.248-21.8,13.632-42.496,27.608-59.96l-12.496-9.992
			c-16.104,20.128-26.808,44.08-31.312,69.28c-20.408,1.768-38.064,13.152-48.488,29.592C145.904,86.264,125.6,78.496,104,78.496H80
			v8c0,38.856,25.344,71.856,60.352,83.48L56,226.216v204.28H18.832H0v16h27.144l24.92,48h391.872l24.92-48H496v-16H477.168z
			 M400,174.496c13.232,0,24,10.768,24,24s-10.768,24-24,24s-24-10.768-24-24S386.768,174.496,400,174.496z M352,126.496
			c13.232,0,24,10.768,24,24s-10.768,24-24,24s-24-10.768-24-24S338.768,126.496,352,126.496z M304,78.496c13.232,0,24,10.768,24,24
			s-10.768,24-24,24s-24-10.768-24-24S290.768,78.496,304,78.496z M208.456,87.152C208.208,90.664,208,94.184,208,97.72v12.776h16
			V97.72c0-3.488,0.184-6.968,0.448-10.432C246.896,91.296,264,110.912,264,134.496c0,26.472-21.528,48-48,48s-48-21.528-48-48
			C168,110.6,185.568,90.784,208.456,87.152z M96.448,94.496H104c19.24,0,37.264,7.496,50.856,21.08
			C153,121.56,152,127.912,152,134.496c0,8.112,1.576,15.848,4.344,22.992C124.76,152.312,100.008,126.584,96.448,94.496z
			 M162.816,174.232c1.072,0.064,2.144,0.144,3.232,0.168c11.736,14.664,29.752,24.096,49.952,24.096c35.288,0,64-28.712,64-64
			c0-0.072-0.008-0.144-0.008-0.216c6.704,5.088,14.96,8.216,24.008,8.216c3.168,0,6.208-0.464,9.16-1.16
			c-0.696,2.952-1.16,5.992-1.16,9.16c0,22.056,17.944,40,40,40c3.168,0,6.208-0.464,9.16-1.16c-0.696,2.952-1.16,5.992-1.16,9.16
			c0,9.04,3.128,17.296,8.208,24H90.424L162.816,174.232z M72,286.496h32v-16H72v-32h352v32H120v16h176v16H72V286.496z M72,318.496
			h224v48c0,13.232,10.768,24,24,24s24-10.768,24-24v-40c0-4.408,3.584-8,8-8c4.416,0,8,3.592,8,8v64c0,13.232,10.768,24,24,24
			s24-10.768,24-24v-72h-16v72c0,4.408-3.584,8-8,8c-4.416,0-8-3.592-8-8v-64c0-13.232-10.768-24-24-24s-24,10.768-24,24v40
			c0,4.408-3.584,8-8,8c-4.416,0-8-3.592-8-8v-80h80v16h16v-16h16v144H72V318.496z M434.216,478.496H61.784l-16.616-32H450.84
			L434.216,478.496z"/>
	</g>
</g>
<g>
</g>
<g>
</g>
<g>
</g>
<g>
</g>
<g>
</g>
<g>
</g>
<g>
</g>
<g>
</g>
<g>
</g>
<g>
</g>
<g>
</g>
<g>
</g>
<g>
</g>
<g>
</g>
<g>
</g>
</svg>
