<svg id="Capa_1" enable-background="new 0 0 512.015 512.015" height="512" viewBox="0 0 512.015 512.015" width="512" xmlns="http://www.w3.org/2000/svg"><g><path d="m505.845 302.209c-32.36-63.641-74.324-121.518-124.726-172.023-50.403-50.507-108.163-92.558-171.673-124.984-11.274-5.755-24.112-6.773-36.151-2.861-12.054 3.917-21.86 12.303-27.612 23.615-7.433 14.621-6.553 31.331.87 44.694l-16.615 46.34c-.003.009-.008.017-.011.025l-7.446 20.771-72.768 202.953c-.002.005-.004.009-.006.014l-8.098 22.588-38.349 106.958c-4.554 11.341-2.084 23.795 6.464 32.542 8.58 8.813 21.123 11.447 32.36 7.16l142.624-51.158c3.899-1.398 5.926-5.693 4.527-9.592s-5.692-5.923-9.592-4.527l-142.691 51.183c-5.883 2.298-12.083.978-16.5-3.551-4.413-4.514-5.623-10.702-3.238-16.554.041-.099.079-.199.115-.3l12.243-34.147c11.17 9.951 25.738 15.66 40.945 15.66 33.911 0 61.5-27.589 61.5-61.5s-27.589-61.5-61.5-61.5c-.828 0-1.653.022-2.478.055l40.79-113.764c10.851 8.806 24.419 13.709 38.688 13.709 33.911 0 61.5-27.589 61.5-61.5 0-33.746-27.323-61.22-61.006-61.488l9.669-26.968c23.163 14.764 48.839 26.45 71.093 42.565 3.43 2.319 8.094 1.421 10.415-2.01s1.421-8.094-2.009-10.414c-20.364-13.776-41.884-26.478-63.961-37.75-15.925-8.131-22.279-27.734-14.163-43.698 3.934-7.735 10.637-13.47 18.876-16.147 8.224-2.67 16.993-1.977 24.695 1.955 62.105 31.709 118.587 72.83 167.877 122.221 49.289 49.391 90.326 105.99 121.972 168.227 8.117 15.964 1.764 35.566-14.162 43.698-15.707 8.274-35.869 1.49-43.571-14.193-41.008-80.647-97.799-149.143-168.797-203.582-3.286-2.519-7.994-1.899-10.515 1.389-2.521 3.287-1.899 7.995 1.388 10.516 73.865 54.755 127.286 128.078 171.543 208.676l-215.77 77.395c-3.899 1.398-5.926 5.693-4.527 9.592 1.393 3.937 5.796 5.919 9.592 4.527l224.94-80.684c13.372 6.645 29.094 6.594 42.539-.276 23.279-11.887 32.57-40.532 20.71-63.857zm-435.328 46.806c25.64 0 46.5 20.859 46.5 46.5s-20.86 46.5-46.5 46.5c-13.603 0-26.548-6.023-35.341-16.281l20.429-56.985 6.825-19.035c2.651-.465 5.358-.699 8.087-.699zm77-223c25.64 0 46.5 20.859 46.5 46.5s-20.86 46.5-46.5 46.5c-12.6 0-24.491-5.041-33.215-13.958l20.032-55.884 8.209-22.896c1.64-.174 3.303-.262 4.974-.262z"/><path d="m189.736 332.525c-4.109-.134-7.586 3.158-7.697 7.298-.998 34.483 26.975 63.249 61.478 63.192 33.911 0 61.5-27.589 61.5-61.5s-27.589-61.5-61.5-61.5c-18.462 0-35.783 8.186-47.521 22.459-2.631 3.199-2.17 7.926 1.029 10.557 3.2 2.633 7.926 2.172 10.557-1.029 8.877-10.795 21.975-16.986 35.935-16.986 25.64 0 46.5 20.859 46.5 46.5s-20.86 46.5-46.5 46.5c-26.092.043-47.247-21.717-46.482-47.794.11-4.142-3.158-7.588-7.299-7.697z"/><path d="m237.454 252.366c.719 0 1.446-.104 2.16-.318 1.133-.342 27.842-8.591 35.125-29.558 7.25-20.87-8.254-44.489-8.918-45.484-1.831-2.745-5.242-3.968-8.4-3.022-1.133.342-27.842 8.591-35.125 29.558-7.25 20.87 8.254 44.489 8.918 45.484 1.417 2.124 3.779 3.34 6.24 3.34zm-.989-43.904c3.003-8.645 12.774-14.771 19.78-17.973 3.495 7.086 7.365 18.328 4.325 27.078-3.002 8.645-12.774 14.771-19.78 17.973-3.495-7.085-7.365-18.328-4.325-27.078z"/><path d="m330.454 270.294c3.891 1.426 8.197-.574 9.621-4.465 1.424-3.89-.575-8.197-4.465-9.621-11.945-4.373-23.922-4.165-24.429-4.157-3.299.071-6.164 2.29-7.058 5.466-.319 1.132-7.644 27.911 6.049 45.198 13.215 16.361 38.058 16.739 42.875 16.777 3.299-.07 6.164-2.29 7.058-5.466.131-.466 3.197-11.549 1.969-23.832-.412-4.121-4.09-7.132-8.209-6.717-4.122.412-7.129 4.088-6.717 8.209.462 4.621.113 9.11-.361 12.483-7.781-.856-19.18-3.604-24.856-10.769-5.606-7.079-5.55-18.448-4.511-26.008 3.597.388 8.381 1.199 13.034 2.902z"/><path d="m129.312 261.802c-3.179-.89-6.563.404-8.34 3.185-.63.987-15.352 24.409-7.288 44.852 8.027 20.349 34.898 28.071 36.038 28.39 3.121.888 6.565-.388 8.34-3.185.63-.987 15.352-24.409 7.288-44.852-8.027-20.349-34.898-28.071-36.038-28.39zm18.892 59.924c-6.568-2.791-17.049-8.477-20.566-17.392-3.29-8.341.028-19.129 3.193-26.03 6.568 2.791 17.049 8.477 20.566 17.392 3.29 8.341-.028 19.129-3.193 26.03z"/></g></svg>