<?xml version="1.0" encoding="iso-8859-1"?>
<!-- Generator: Adobe Illustrator 19.0.0, SVG Export Plug-In . SVG Version: 6.00 Build 0)  -->
<svg version="1.1" id="Capa_1" xmlns="http://www.w3.org/2000/svg" xmlns:xlink="http://www.w3.org/1999/xlink" x="0px" y="0px"
	 viewBox="0 0 480 480" style="enable-background:new 0 0 480 480;" xml:space="preserve">
<g>
	<g>
		<path d="M472,192.124H8c-4.418,0-8,3.582-8,8c0,101.664,51.96,185.952,136,221.384v26.616c0,4.418,3.582,8,8,8h192
			c4.418,0,8-3.582,8-8v-26.616c84.04-35.432,136-119.72,136-221.384C480,195.706,476.418,192.124,472,192.124z M333.08,408.676
			c-3.064,1.201-5.08,4.157-5.08,7.448v24H152v-24c0-3.291-2.016-6.247-5.08-7.448C68.4,377.876,18.8,301.468,16.12,208.124h447.76
			C461.2,301.468,411.6,377.876,333.08,408.676z"/>
	</g>
</g>
<g>
	<g>
		<path d="M441.703,224.531c-4.17-0.938-8.341,1.567-9.471,5.689l-2.304,9.224c-14.248,56.96-51.608,106.608-97.512,129.552
			c-3.937,2.006-5.502,6.823-3.496,10.76c1.358,2.665,4.089,4.35,7.08,4.368c1.235,0.012,2.456-0.261,3.568-0.8
			c49.96-24.984,90.536-78.624,105.88-140l2.304-9.232C448.722,229.782,446.014,225.501,441.703,224.531z"/>
	</g>
</g>
<g>
	<g>
		<path d="M171.192,72.644c-4.075-9.299-4.25-19.843-0.488-29.272l3.464-8.096c1.877-4,0.156-8.764-3.844-10.641
			c-4-1.877-8.764-0.156-10.641,3.844c-0.076,0.162-0.146,0.326-0.211,0.492L156,37.068c-5.627,13.679-5.337,29.078,0.8,42.536
			c4.075,9.299,4.25,19.843,0.488,29.272l-3.464,8.096c-1.877,4-0.156,8.764,3.844,10.641c4,1.877,8.764,0.156,10.641-3.844
			c0.076-0.162,0.146-0.326,0.211-0.492l3.472-8.096C177.619,101.501,177.329,86.102,171.192,72.644z"/>
	</g>
</g>
<g>
	<g>
		<path d="M243.192,72.644c-4.075-9.299-4.25-19.843-0.488-29.272l3.464-8.096c1.877-4,0.156-8.764-3.844-10.641
			c-4-1.877-8.764-0.156-10.641,3.844c-0.076,0.162-0.146,0.326-0.211,0.492L228,37.068c-5.627,13.679-5.337,29.078,0.8,42.536
			c4.075,9.299,4.25,19.843,0.488,29.272l-3.464,8.096c-1.877,4-0.156,8.764,3.844,10.641c4,1.877,8.764,0.155,10.641-3.844
			c0.076-0.162,0.146-0.326,0.211-0.492l3.472-8.096C249.619,101.501,249.329,86.102,243.192,72.644z"/>
	</g>
</g>
<g>
	<g>
		<path d="M315.192,72.644c-4.075-9.299-4.25-19.843-0.488-29.272l3.464-8.096c1.877-4,0.155-8.764-3.844-10.641
			c-4-1.877-8.764-0.155-10.641,3.844c-0.076,0.162-0.146,0.326-0.211,0.492L300,37.068c-5.627,13.679-5.337,29.078,0.8,42.536
			c4.075,9.299,4.25,19.843,0.488,29.272l-3.464,8.096c-1.877,4-0.156,8.764,3.844,10.641c4,1.877,8.764,0.155,10.641-3.844
			c0.076-0.162,0.146-0.326,0.211-0.492l3.472-8.096C321.619,101.501,321.329,86.102,315.192,72.644z"/>
	</g>
</g>
<g>
</g>
<g>
</g>
<g>
</g>
<g>
</g>
<g>
</g>
<g>
</g>
<g>
</g>
<g>
</g>
<g>
</g>
<g>
</g>
<g>
</g>
<g>
</g>
<g>
</g>
<g>
</g>
<g>
</g>
</svg>
