<svg id="Capa_1" enable-background="new 0 0 511.997 511.997" height="512" viewBox="0 0 511.997 511.997" width="512" xmlns="http://www.w3.org/2000/svg"><g><path d="m415.972 124.542h-14.982v-9.934c0-13.031-10.603-23.634-23.635-23.634h-157.155c-4.143 0-7.5 3.357-7.5 7.5s3.357 7.5 7.5 7.5h157.154c4.761 0 8.635 3.873 8.635 8.634v29.403h-277.802v-38.037h77.013c4.143 0 7.5-3.357 7.5-7.5s-3.357-7.5-7.5-7.5h-35.996v-10.537c0-15.443-12.564-28.008-28.009-28.008s-28.008 12.565-28.008 28.008v10.537h-69.552c-13.032 0-23.635 10.603-23.635 23.634v159.685c0 51.878 29.558 96.978 72.715 119.357h-52.758c-10.012 0-16.643 10.426-12.373 19.437 5.56 11.733 12.794 22.598 21.502 32.291 8.104 9.019 19.664 14.19 31.716 14.19h279.386c12.052 0 23.612-5.172 31.716-14.191 8.708-9.692 15.942-20.557 21.502-32.29 4.278-9.026-2.378-19.437-12.373-19.437h-52.758c13.89-7.203 26.368-16.761 36.908-28.141h50.789c52.948 0 96.025-43.076 96.025-96.024v-48.918c0-52.948-43.077-96.025-96.025-96.025zm-307.785-44.105c0-7.173 5.836-13.008 13.009-13.008s13.009 5.835 13.009 13.008v10.537h-26.018zm-93.187 34.171c0-4.761 3.873-8.634 8.635-8.634h69.552v38.037h-78.187zm363.886 294.042c-4.801 9.664-10.896 18.639-18.141 26.702-5.263 5.856-12.756 9.216-20.558 9.216h-279.385c-7.802 0-15.295-3.359-20.558-9.215-7.244-8.064-13.34-17.039-18.141-26.703zm-112.255-15h-132.273c-65.814 0-119.358-53.544-119.358-119.358v-115.281h78.187v12.749c-5.275 1.547-9.963 4.724-13.431 9.218l-21.648 28.064c-3.813 4.943-5.914 11.105-5.914 17.35v75.642c0 9.555 7.773 17.328 17.328 17.328h62.33c9.555 0 17.328-7.773 17.328-17.328v-16.644c0-4.143-3.357-7.5-7.5-7.5s-7.5 3.357-7.5 7.5v16.644c0 1.284-1.044 2.328-2.328 2.328h-62.33c-1.284 0-2.328-1.044-2.328-2.328v-75.642c0-2.947.991-5.854 2.791-8.188l21.648-28.064c.467-.605.993-1.142 1.554-1.632v15.983c-9.043 3.12-15.559 11.71-15.559 21.799 0 12.715 10.344 23.059 23.059 23.059s23.059-10.344 23.059-23.059c0-10.089-6.516-18.679-15.559-21.799v-15.982c.56.49 1.086 1.027 1.553 1.631l21.649 28.063c1.8 2.334 2.791 5.242 2.791 8.188v23.998c0 4.143 3.357 7.5 7.5 7.5s7.5-3.357 7.5-7.5v-23.998c0-6.243-2.101-12.404-5.914-17.35l-21.649-28.064c-3.467-4.494-8.155-7.671-13.43-9.218v-12.749h277.803v115.28c-.001 65.816-53.545 119.36-119.359 119.36zm-165.944-175.418c4.443 0 8.059 3.614 8.059 8.058s-3.615 8.059-8.059 8.059-8.059-3.615-8.059-8.059 3.615-8.058 8.059-8.058zm300.302 56.06v-96.906h14.982c23.811 0 43.182 19.371 43.182 43.182v48.918c0 23.81-19.371 43.181-43.182 43.181h-20.575c3.633-12.167 5.593-25.045 5.593-38.375zm96.008-4.807c0 44.677-36.348 81.024-81.025 81.024h-38.682c4.96-7.184 9.197-14.819 12.672-22.844h26.01c32.081 0 58.182-26.1 58.182-58.181v-48.918c0-32.081-26.101-58.182-58.182-58.182h-14.982v-10.874-11.97h14.982c44.678 0 81.025 36.348 81.025 81.025z"/></g></svg>