<svg id="Capa_1" enable-background="new 0 0 512 512" height="512" viewBox="0 0 512 512" width="512" xmlns="http://www.w3.org/2000/svg"><g><path d="m323.264 330.906c36.236-17.344 64.338-44.84 76.087-83.007 11.314-36.753 9.696-77.322 4.821-114.989-4.845-37.434-26.051-107.167-32.435-127.647-.975-3.13-3.873-5.263-7.153-5.263h-217.181c-3.28 0-6.179 2.133-7.155 5.264-6.384 20.48-27.59 90.213-32.434 127.647-4.872 37.65-6.471 78.091 4.866 114.866 11.573 37.539 41.028 66.372 76.044 83.13 23.37 11.185 38.471 35.009 38.471 60.695 0 12.592-.413 24.603-5.279 36.454-1.571 3.828.258 8.207 4.086 9.778 3.829 1.571 8.207-.257 9.779-4.086 7.693-18.739 8.901-42.733 3.816-62.384-1.34-5.177-8.139-28.416-14.364-29.489 19.828 3.42 41 3.365 61.034.642-10.455 13.987-16.464 31.16-16.464 49.085 0 42.424 21.356 83.001 66.438 92.616 9.469 2.02 18.983 4.648 25.206 12.794h-210.926c7.461-9.817 20.979-11.984 21.669-12.089.115-.017.229-.036.344-.058 7.672-1.475 16.476-4.268 23.486-7.83 6.408-3.257 12.391-7.344 17.752-12.133 3.086-2.757 3.354-7.494.597-10.581-2.756-3.086-7.493-3.355-10.581-.597-9.615 8.589-21.347 13.983-33.926 16.393-3.013.474-32.189 5.752-38.191 32.763-.493 2.219.048 4.542 1.469 6.315 1.423 1.773 3.572 2.805 5.846 2.805h234.014c2.274 0 4.423-1.032 5.846-2.805 1.422-1.773 1.962-4.096 1.469-6.315-4.504-20.286-22.415-29.366-40.966-33.324-46.431-9.914-68.041-66.158-47.606-107.481 6.691-13.53 17.899-24.649 31.521-31.169zm-72.927-1.046c-20.208-.711-40.092-5.1-56.376-13.084-18.935-9.284-35.641-22.548-49.657-39.464-10.239-12.357-24.903-39.529-24.971-93.703.032.02.066.037.099.058-.01-3.826.046-7.584.162-11.233.092-2.905 47.294 7.521 51.296 8.707 8.595 2.548 17.077 5.465 25.5 8.532 33.184 12.084 66.026 26.545 101.517 30.594 4.127.471 7.828-2.482 8.297-6.593.47-4.112-2.481-7.827-6.593-8.297-26.597-3.044-51.982-12.295-76.84-21.793-33.12-12.657-67.285-25.707-102.424-26.132.541-7.157 1.307-14.687 2.334-22.618 4.34-33.545 22.572-94.904 30.249-119.846h206.131c7.677 24.942 25.909 86.301 30.249 119.847 1.732 13.379 2.729 25.624 3.134 36.836-12.138 14.403-27.991 25.094-44.911 30.208-5.019 1.515-10.276 2.658-15.625 3.395-4.1.565-6.965 4.347-6.4 8.447.565 4.101 4.346 6.96 8.447 6.4 6.12-.844 12.146-2.154 17.912-3.895 14.645-4.427 28.575-12.398 40.511-23.03-.089 2.544-.217 5.122-.383 7.721.04-.063.083-.122.124-.184-2.741 42.925-15.336 65.598-24.435 76.578-14.322 17.285-31.444 30.769-50.89 40.076-19.188 9.183-43.039 13.297-66.457 12.473z"/></g></svg>